<?xml version="1.0"?>
<svg xmlns="http://www.w3.org/2000/svg" xmlns:xlink="http://www.w3.org/1999/xlink" version="1.1" id="Layer_1" x="0px" y="0px" viewBox="0 0 512 512" style="enable-background:new 0 0 512 512;" xml:space="preserve" width="512px" height="512px" class=""><g><circle style="fill:#E0E0E0" cx="256" cy="256" r="256" data-original="#324A5E" class="" data-old_color="#EEEEEE"/><path style="fill:#BDBDBD" d="M269.621,511.638c132.406-6.942,238.151-114.491,242.241-247.634l-151.948-151.95l-156.222,95.229  l-81.294,23.53l63.055,63.055l-48.211,85.392L269.621,511.638z" data-original="#2B3B4E" class="" data-old_color="#E0E0E0"/><rect x="137.24" y="201.128" style="fill: rgb(252, 111, 88);" width="237.52" height="178.131" data-original="#FC6F58" class="" data-old_color="#FC6F58"/><rect x="256.293" y="201.128" style="fill: rgb(241, 84, 63);" width="118.467" height="178.131" data-original="#F1543F" class="" data-old_color="#F1543F"/><rect x="226.314" y="290.185" style="fill: rgb(255, 209, 93);" width="59.378" height="89.069" data-original="#FFD15D" class="" data-old_color="#FFD15D"/><rect x="256.293" y="290.185" style="fill: rgb(249, 181, 76);" width="29.393" height="89.069" data-original="#F9B54C" class="" data-old_color="#F9B54C"/><polygon style="fill: rgb(255, 209, 93);" points="389.603,230.812 122.397,230.812 152.086,112.054 359.914,112.054 " data-original="#FFD15D" class="" data-old_color="#FFD15D"/><polygon style="fill: rgb(249, 181, 76);" points="359.914,112.054 256.288,112.054 256.288,230.812 389.603,230.812 " data-original="#F9B54C" class="" data-old_color="#F9B54C"/><rect x="161.754" y="250.156" style="fill: rgb(230, 243, 255);" width="50.39" height="50.39" data-original="#E6F3FF" class="" data-old_color="#E6F3FF"/><rect x="299.856" y="250.156" style="fill:#CFDBE6" width="50.39" height="50.39" data-original="#CFDBE6" class="active-path" data-old_color=" rgb(207, 219, 230)"/></g> </svg>
